<svg xmlns="http://www.w3.org/2000/svg" width="32.969" height="29.969" viewBox="0 0 32.969 29.969">
  <metadata><?xpacket begin="﻿" id="W5M0MpCehiHzreSzNTczkc9d"?>
<x:xmpmeta xmlns:x="adobe:ns:meta/" x:xmptk="Adobe XMP Core 5.6-c138 79.159824, 2016/09/14-01:09:01        ">
   <rdf:RDF xmlns:rdf="http://www.w3.org/1999/02/22-rdf-syntax-ns#">
      <rdf:Description rdf:about=""/>
   </rdf:RDF>
</x:xmpmeta>
<?xpacket end="w"?></metadata>
<defs>
    <style>
      .cls-1 {
        fill: #fff;
        fill-rule: evenodd;
      }
    </style>
  </defs>
  <path id="Forma_1" data-name="Forma 1" class="cls-1" d="M178.327,473.269a2.868,2.868,0,1,0,2.756,2.865A2.812,2.812,0,0,0,178.327,473.269Zm12.028,0a2.868,2.868,0,1,0,2.756,2.865A2.812,2.812,0,0,0,190.355,473.269Zm6.923-15.707-15.266,0a1.439,1.439,0,0,0,0,2.875h13.507l-0.857,3.015-13.733,0a1.334,1.334,0,0,0,0,2.666l12.974,0.006-0.806,2.82H177.621l-1.027-8.512-0.98-8.291a1.59,1.59,0,0,0-1.154-1.358l-6.528-1.732a1.546,1.546,0,0,0-1.883,1.163,1.617,1.617,0,0,0,1.118,1.958l5.506,1.461,2.145,16.732s0.073,1.952,1.778,1.952H193.7a1.852,1.852,0,0,0,1.71-1.554l3.39-10.469S199.808,457.562,197.278,457.562Z" transform="translate(-166.031 -449.031)"/>
</svg>
